<?xml version="1.0" encoding="UTF-8" standalone="no"?>
<!DOCTYPE svg PUBLIC "-//W3C//DTD SVG 1.1//EN" "http://www.w3.org/Graphics/SVG/1.1/DTD/svg11.dtd">
<svg width="100%" height="100%" viewBox="0 0 500 500" version="1.1" xmlns="http://www.w3.org/2000/svg" xmlns:xlink="http://www.w3.org/1999/xlink" xml:space="preserve" xmlns:serif="http://www.serif.com/" style="fill-rule:evenodd;clip-rule:evenodd;stroke-linejoin:round;stroke-miterlimit:2;">
    <g id="publicdomainvectors.org">
        <g transform="matrix(1,0,0,1,0,-0.002)">
            <rect x="0" y="0.002" width="499.998" height="499.998" style="fill:rgb(237,253,255);"/>
        </g>
        <g transform="matrix(1,0,0,1,0,167.634)">
            <rect x="0" y="0" width="500" height="332.366" style="fill:rgb(201,240,245);"/>
        </g>
        <g transform="matrix(1,0,0,1,0,109.452)">
            <path d="M228.843,181.735L218.153,207.588C212.188,222.013 204.711,235.766 195.852,248.617L187.664,246.75C170.752,242.894 156.296,231.993 147.937,216.795L164.84,188.581L166.648,178.525C170.581,156.649 191.279,141.931 213.234,145.397L240.304,155.787L228.843,181.735Z" style="fill:rgb(130,77,60);"/>
        </g>
        <g transform="matrix(1,0,0,1,0,233.693)">
            <path d="M194.352,116.812L187.531,125.416C178.919,136.278 167.963,145.051 155.482,151.082L135.947,150.447C107.941,149.538 79.986,147.481 52.152,144.281L23.103,160.057L18.404,164.587C16.947,165.993 14.738,166.266 12.983,165.258C11.228,164.252 10.349,162.206 10.826,160.24C11.415,157.81 12.273,155.45 13.382,153.207C15.646,148.632 19.241,144.848 23.697,142.357C27.933,139.988 31.305,136.332 33.329,131.922C34.667,129.001 37.27,126.858 40.392,126.103C43.513,125.348 46.808,126.065 49.333,128.049C51.558,129.797 54.107,131.008 56.79,131.646L77.354,123.61C98.518,115.341 121.875,114.573 143.537,121.433L149.631,115.336L156.853,100.041L166.509,102.445C176.783,104.998 186.317,109.917 194.352,116.812" style="fill:rgb(140,140,140);"/>
        </g>
        <g transform="matrix(1,0,0,1,0,106.143)">
            <path d="M238.396,172.675L237.178,200.626C236.5,216.22 234.171,231.701 230.233,246.806L221.901,247.848C204.689,250.001 187.38,244.692 174.331,233.265L180.582,200.973L178.845,190.905C175.069,169 189.495,148.097 211.313,143.856L240.304,144.376L238.396,172.675Z" style="fill:rgb(130,77,60);"/>
        </g>
        <g transform="matrix(1,0,0,1,0,-214.411)">
            <path d="M351.435,329.922C354.518,339.238 349.793,347.23 353.747,351.307C357.701,355.382 351.713,376.283 347.797,378.838C345.603,380.268 336.067,377.433 330.813,375.936L329.692,386.115L307.478,384.567L311.022,368.806L301.58,328.296L351.435,329.922Z" style="fill:rgb(140,140,140);"/>
        </g>
        <g transform="matrix(1,0,0,1,0,-248.25)">
            <path d="M351.435,363.761L352.406,357.486C353.123,352.871 351.355,348.405 347.771,345.767C344.185,343.126 339.32,342.712 335.005,344.677L303.145,349.908C299.252,350.547 296.254,354.009 296.205,357.92L295.416,358.848C292.994,361.694 292.074,365.468 292.972,368.888C296.469,382.238 302.407,394.656 310.503,405.538L315.132,398.217C317.979,393.715 320.257,388.905 321.914,383.907L331.852,383.635L329.694,374.835C328.635,370.504 332.192,366.725 336.714,366.027L351.435,363.761Z" style="fill:rgb(51,51,51);"/>
        </g>
        <g transform="matrix(-0.969484,0.245155,0.245155,0.969484,541.798,-293.167)">
            <path d="M320.264,352.31C323.453,352.519 326.041,357.411 326.04,363.238C326.04,369.066 323.454,373.623 320.264,373.415C317.073,373.208 314.488,368.314 314.488,362.487C314.488,356.66 317.073,352.103 320.264,352.31" style="fill:rgb(140,140,140);"/>
        </g>
        <g transform="matrix(1,0,0,1,0,-248.813)">
            <path d="M347.266,371.541L346.938,375.37L344.547,375.549C342.467,375.705 340.407,376.292 338.502,377.272L337.618,375.481C339.8,373.894 342.252,372.754 344.82,372.132L347.266,371.541Z" style="fill:rgb(51,51,51);"/>
        </g>
        <g transform="matrix(-1,0,0,1,684.187,-234.776)">
            <path d="M342.093,363.645C343.619,363.76 344.856,365.528 344.856,367.595C344.856,369.663 343.619,371.245 342.093,371.131C340.567,371.016 339.331,369.247 339.331,367.18C339.331,365.113 340.567,363.531 342.093,363.645" style="fill:rgb(51,51,51);"/>
        </g>
        <g transform="matrix(-0.956079,-0.293111,-0.293111,0.956079,784.903,-77.0514)">
            <path d="M349.217,343.802C350.196,343.864 350.988,345.496 350.989,347.445C350.989,349.396 350.196,350.927 349.217,350.864C348.238,350.802 347.445,349.171 347.445,347.222C347.445,345.271 348.238,343.74 349.217,343.802" style="fill:white;"/>
        </g>
        <g transform="matrix(1,0,0,1,0,-105.89)">
            <path d="M289.003,301.121L237.509,311.932L185.621,334.534L178.546,328.441L197.417,308.983C206.504,299.613 219.172,288.835 231.626,284.92L279.962,275.964C292.251,271.356 306.045,273.358 316.518,281.271L289.003,301.121Z" style="fill:rgb(140,140,140);"/>
        </g>
        <g transform="matrix(1,0,0,1,0,-59.558)">
            <path d="M211.313,309.557C233.393,300.01 250.846,282.182 259.924,259.905C270.372,234.264 298.97,221.182 325.201,230.044L375.896,230.391L388.395,228.655C402.76,226.66 417.396,228.087 431.104,232.821L447.771,237.335L446.728,248.1L431.104,253.308C413.658,259.123 395.024,260.437 376.936,257.127L337.005,260.599L331.451,275.53C326.123,289.849 313.276,300.018 298.117,301.918L284.576,313.377C271.07,324.804 255.348,333.316 238.396,338.376C236.511,322.887 228.94,312.082 211.313,309.557" style="fill:rgb(140,140,140);"/>
        </g>
        <g transform="matrix(1,0,0,1,0,295.435)">
            <path d="M226.241,50.916L222.769,61.332C218.386,74.484 211.084,86.471 201.414,96.402L182.837,102.479C156.205,111.191 129.229,118.806 101.976,125.305L80.063,150.056L77.194,155.919C76.305,157.736 74.322,158.749 72.329,158.4C70.335,158.054 68.81,156.433 68.587,154.421C68.311,151.935 68.311,149.423 68.587,146.937C69.151,141.864 71.238,137.081 74.575,133.215C77.746,129.542 79.668,124.956 80.063,120.12C80.324,116.919 82.038,114.014 84.713,112.238C87.389,110.462 90.731,110.01 93.782,111.012C96.47,111.896 99.281,112.165 102.019,111.846L118.602,97.27C135.667,82.269 157.358,73.569 180.06,72.617L183.706,64.804L185.269,47.965L195.164,46.923C205.693,45.816 216.334,47.183 226.241,50.916" style="fill:rgb(140,140,140);"/>
        </g>
        <g transform="matrix(1,0,0,1,0,-41.525)">
            <path d="M167.882,275.035L165.721,278.686C164.31,281.068 159.953,280.305 159.566,277.762L158.891,277.762C157.557,277.762 156.4,277.074 155.841,275.949C155.282,274.824 155.4,273.424 156.154,272.258C155.18,270.557 155.667,267.8 157.895,266.035L159.845,264.489C160.744,263.777 161.648,263.336 162.736,263.083L166.276,262.257L162.269,261.369L159.865,262.568C158.667,263.166 157.298,262.898 156.592,261.926C155.887,260.955 156.037,259.548 156.953,258.562L161.294,256.701C162.348,256.238 163.485,256.083 164.555,256.257L170.813,257.646L180.624,257.498L182.964,255.781L184.423,255.836C189.06,256.012 192.436,259.587 192.292,264.17L192.104,265.78L190.314,267.115L190.224,269.337C190.141,271.355 189.17,273.34 187.561,274.781C184.778,277.272 183.002,278.64 182.751,282.136C182.493,285.744 176.83,285.608 177.23,279.746C177.539,278.089 178.02,278.074 179.003,276.62L178.932,274.28L173.819,273.256L167.882,275.035Z" style="fill:rgb(140,140,140);"/>
        </g>
        <g transform="matrix(1,0,0,1,0,-132.194)">
            <path d="M437.658,309.18L458.313,308.709C463.401,308.592 468.38,308.643 473.244,310.141L480.058,311.482C483.474,312.034 485.535,313.321 488.132,315.605C489.075,316.432 489.491,317.705 489.222,318.928C488.953,320.152 488.039,321.132 486.839,321.488C485.637,321.844 484.337,321.519 483.446,320.639L479.8,318.903L468.863,317.167L462.959,319.944C455.985,323.227 447.989,323.602 440.737,320.986C439.228,320.442 438.041,319.249 437.503,317.736C436.965,316.224 436.465,309.208 437.658,309.18" style="fill:rgb(140,140,140);"/>
        </g>
        <g transform="matrix(1,0,0,1,0,-123.058)">
            <path d="M447.413,311.828L461.852,318.305C463.508,319.048 465.459,318.491 466.474,316.987C467.491,315.482 467.276,313.464 465.97,312.205L455.272,304.01L447.413,311.828Z" style="fill:rgb(140,140,140);"/>
        </g>
        <g transform="matrix(1,0,0,1,0,160.546)">
            <path d="M340.978,244.725L373.963,245.248L406.949,245.767L373.963,246.29L340.978,246.809L307.991,246.29L275.005,245.767L307.991,245.248L340.978,244.725ZM168.408,310.004L228.999,310.523L289.589,311.046L228.999,311.565L168.408,312.088L107.818,311.565L47.228,311.046L107.818,310.523L168.408,310.004ZM135.072,29.449L192.536,28.929L250,28.407L192.536,27.886L135.072,27.366L77.609,27.886L20.145,28.407L77.609,28.929L135.072,29.449ZM409.379,62.783L438.373,63.303L467.364,63.824L438.373,64.345L409.379,64.866L380.386,64.345L351.394,63.824L380.386,63.303L409.379,62.783ZM162.156,163.477L219.62,162.955L277.083,162.434L219.62,161.913L162.156,161.392L47.228,162.434L104.692,162.955L162.156,163.477ZM390.282,187.782L416.323,188.042L442.365,188.303L416.323,188.564L390.282,188.824L364.24,188.564L338.199,188.303L364.24,188.042L390.282,187.782ZM432.99,285.698L446.012,285.179L459.032,284.656L446.012,284.137L432.99,283.616L419.97,284.137L406.949,284.656L419.97,285.179L432.99,285.698ZM111.117,254.448L149.311,254.708L187.505,254.971L149.311,255.23L111.117,255.49L72.922,255.23L34.729,254.971L72.922,254.708L111.117,254.448ZM72.922,73.893L92.02,74.414L111.117,74.935L92.02,75.455L72.922,75.976L53.825,75.455L34.729,74.935L53.825,74.414L72.922,73.893ZM264.935,114.866L361.984,115.386L459.032,115.907L361.984,116.429L264.935,116.948L167.887,116.429L70.839,115.907L167.887,115.386L264.935,114.866Z" style="fill:white;"/>
        </g>
    </g>
</svg>
